<?xml version="1.0" encoding="UTF-8"?>
<svg id="Capa_1" data-name="Capa 1" xmlns="http://www.w3.org/2000/svg" viewBox="0 0 425.2 198.43">
  <defs>
    <style>
      .cls-1 {
        fill: #fff;
      }
    </style>
  </defs>
  <path class="cls-1" d="M48.01,98.97c0-12.97,7.51-18.68,17.3-18.68,5.71,0,10.53,2.2,13.54,6.45,3.02-4.24,7.75-6.45,13.54-6.45,9.79,0,17.3,5.71,17.3,18.68v22.68h-12.24v-22.68c0-5.38-2.61-7.26-6.28-7.26s-6.2,1.88-6.2,7.26v22.68h-12.24v-22.68c0-5.38-2.61-7.26-6.2-7.26s-6.28,1.88-6.28,7.26v22.68h-12.24v-22.68Z"/>
  <path class="cls-1" d="M116.06,101.5c0-12.24,8.97-21.21,21.7-21.21s21.46,8.97,21.46,21.21v3.43h-30.43c.98,4.73,4.57,6.85,8.98,6.85,3.51,0,6.12-.73,7.67-2.94h12.65c-2.61,8.32-10.28,13.87-20.32,13.87-12.73,0-21.7-8.97-21.7-21.21ZM146.65,97.17c-1.39-4.16-4.65-5.96-8.89-5.96s-7.51,1.88-8.73,5.96h17.62Z"/>
  <path class="cls-1" d="M166.89,63.72h12.24v57.93h-12.24v-57.93Z"/>
  <path class="cls-1" d="M189.74,63.72h12.24v57.93h-12.24v-57.93Z"/>
  <path class="cls-1" d="M209.65,101.5c0-12.24,8.98-21.21,21.7-21.21s21.7,8.97,21.7,21.21-8.98,21.21-21.7,21.21-21.7-8.97-21.7-21.21ZM240.65,101.5c0-5.79-3.75-9.79-9.3-9.79s-9.3,4-9.3,9.79,3.75,9.79,9.3,9.79,9.3-4,9.3-9.79Z"/>
  <path class="cls-1" d="M259.42,104.03v-22.68h12.24v22.68c0,5.38,2.61,7.26,6.28,7.26s6.2-1.88,6.2-7.26v-22.68h12.24v22.68c0,5.38,2.61,7.26,6.2,7.26s6.28-1.88,6.28-7.26v-22.68h12.24v22.68c0,12.97-7.51,18.68-17.3,18.68-5.79,0-10.53-2.2-13.54-6.45-3.02,4.24-7.83,6.45-13.54,6.45-9.79,0-17.3-5.71-17.3-18.68Z"/>
  <path class="cls-1" d="M350.73,84.97h-.27c-.51-.18-1.2-.34-2.05-.5-.85-.16-1.61-.24-2.29-.24-2.18,0-3.81.55-4.9,1.65-1.09,1.1-1.91,2.8-2.46,5.1l-.24,1.01h9.02l-.96,3.98h-8.83l-5.81,25.68h-5.04l5.81-25.68h-3.39l.96-3.98h3.37l.21-.98c.72-3.47,2.14-6.16,4.26-8.07,2.12-1.91,4.84-2.87,8.17-2.87,1.12,0,2.12.05,3.03.16.9.11,1.72.23,2.44.37l-1.04,4.38Z"/>
  <path class="cls-1" d="M356.74,91.98l-6.85,29.67h-4.99l6.85-29.67h4.99ZM359.45,81.84l-1.2,5.18h-5.65l1.2-5.18h5.65Z"/>
  <path class="cls-1" d="M381.16,91.98l-.9,4.04h-10.31l-3.18,13.7c-.18.69-.34,1.49-.48,2.38s-.21,1.61-.21,2.14c0,1.29.33,2.26.98,2.89.66.63,1.87.94,3.64.94.73,0,1.59-.12,2.59-.37,1-.25,1.68-.44,2.03-.58h.27l-.93,4.28c-.99.25-2.05.45-3.17.61-1.12.16-2.12.24-2.99.24-2.44,0-4.33-.54-5.67-1.61s-2.01-2.77-2.01-5.09c0-.57.04-1.13.12-1.69.08-.56.19-1.19.33-1.9l3.69-15.94h-3.37l.91-4.04h3.4l1.97-8.53h5.02l-1.99,8.53h10.27Z"/>
</svg>