<?xml version="1.0" encoding="UTF-8"?>
<svg id="Capa_1" data-name="Capa 1" xmlns="http://www.w3.org/2000/svg" viewBox="0 0 198.43 198.43">
  <defs>
    <style>
      .cls-1 {
        fill: #517eff;
      }
    </style>
  </defs>
  <path class="cls-1" d="M170.31,81.66v37.22c0,8.84-4.28,11.92-10.31,11.92s-10.18-3.08-10.18-11.92v-37.22h-20.08v37.22c0,8.84-4.28,11.92-10.18,11.92s-10.31-3.08-10.31-11.92v-39.34c0-21.29-12.32-30.66-28.39-30.66-9.51,0-17.27,3.62-22.23,10.58-4.95-6.96-12.85-10.58-22.23-10.58-16.07,0-28.39,9.37-28.39,30.66v37.22h20.08v-37.22c0-8.84,4.28-11.92,10.31-11.92s10.18,3.08,10.18,11.92v37.22h20.08v-37.22c0-8.84,4.28-11.92,10.18-11.92s10.31,3.08,10.31,11.92v39.34c0,21.29,12.32,30.66,28.39,30.66,9.37,0,17.27-3.62,22.23-10.58,4.95,6.96,12.72,10.58,22.23,10.58,16.07,0,28.39-9.37,28.39-30.66v-37.22h-20.08Z"/>
</svg>